# xmcd
#
# Track frame offsets: 
#        182
#        11230
#        26715
#        36332
#        54077
#        66010
#        77577
#        87852
#        103700
#        116155
#        130890
#        144732
#
# Disc length: 2094 seconds
#
# Revision: 0
# Processed by: cddbd v1.5.2PL0 Copyright (c) Steve Scherf et al.
# Submitted via: ExactAudioCopy v0.99pb3
#
DISCID=a0082c0c
DTITLE=Bana - Chante La Magie Du Cap-Vert
DYEAR=1994
DGENRE=Morna;Coladera
TTITLE0=Sayko [Coladera]
TTITLE1=Ondas Tchora [Morna]
TTITLE2=Sangue De Berona [Coladera]
TTITLE3=Tchan De Pedra [Morna]
TTITLE4=Nha Bolanha [Coladera]
TTITLE5=Sonho Di Nhá Sperança [Morna]
TTITLE6=Mar De Canal [Morna]
TTITLE7=Judith [Morna]
TTITLE8=Nha Bitinha [Coladera]
TTITLE9=Sódade De Cabo Verde [Morna]
TTITLE10=Alfacinha [Morna]
TTITLE11=Separação [Morna]
EXTD=
EXTT0=
EXTT1=
EXTT2=
EXTT3=
EXTT4=
EXTT5=
EXTT6=
EXTT7=
EXTT8=
EXTT9=
EXTT10=
EXTT11=
PLAYORDER=
